<svg xmlns="http://www.w3.org/2000/svg" version="1.1" xmlns:xlink="http://www.w3.org/1999/xlink" xmlns:svgjs="http://svgjs.dev/svgjs" width="100%" height="100%" viewBox="0 0 1000 600"><rect width="1000" height="600" x="0" y="0" fill="#020202"/><g><rect width="333.3333333333333" height="333.3333333333333" rx="13.333333333333334" ry="13.333333333333334" y="108.68172744249802" fill="#020202" transform="matrix(1.4457639105654776,0,0,1.4457639105654776,0,-98.08874752632381)" x="86.45950317382812"/><path d="M180.7780521743323 350.3483862539797L128.73663643946205 350.3483862539797L128.73663643946205 200.34838222988012L177.78918708145125 200.34838222988012Q202.19825200664658 200.34838222988012 214.50534356556858 210.45777886756605Q226.8124351244906 220.5378729063022 226.8124351244906 240.31712719742688L226.8124351244906 240.31712719742688Q226.8124351244906 250.8367602204102 220.83470493872846 258.924277530559Q214.85697475296638 267.0117948407077 204.57176252158155 271.4364872821297L204.57176252158155 271.4364872821297Q216.70303848680467 274.83558876030816 223.7649648337099 284.3589334189978Q230.82689118061518 293.8822780776875 230.82689118061518 307.0684476051039L230.82689118061518 307.0684476051039Q230.82689118061518 327.257938281526 217.757932048998 338.80316226775284Q204.65967031843098 350.3483862539797 180.7780521743323 350.3483862539797L180.7780521743323 350.3483862539797ZM181.48131454912783 280.1979643681242L148.5158907305867 280.1979643681242L148.5158907305867 334.17335163368216L181.18828855962968 334.17335163368216Q194.98981266499226 334.17335163368216 202.96011957934175 327.0235174899275Q210.95972909264106 319.844380747223 210.95972909264106 307.2735657977526L210.95972909264106 307.2735657977526Q210.95972909264106 280.1979643681242 181.48131454912783 280.1979643681242L181.48131454912783 280.1979643681242ZM148.5158907305867 216.64062724597687L148.5158907305867 264.3159557373248L178.40454165939732 264.3159557373248Q191.38559299416508 264.3159557373248 199.1507817158659 257.8400813694158Q206.94527303651648 251.33490440255707 206.94527303651648 240.22921940057745L206.94527303651648 240.22921940057745Q206.94527303651648 227.86352264375577 199.70753109591237 222.23742364539143Q192.49909175425802 216.64062724597687 177.78918708145125 216.64062724597687L177.78918708145125 216.64062724597687L148.5158907305867 216.64062724597687ZM357.2383030501142 350.3483862539797L342.909332163655 311.20011405702775L280.0845600152531 311.20011405702775L265.96070732144256 350.3483862539797L245.5660984523718 350.3483862539797L302.8526793992588 200.34838222988012L320.1412127796493 200.34838222988012L377.51570152338576 350.3483862539797L357.2383030501142 350.3483862539797ZM311.496946089454 224.75744715507545L286.06229020101523 294.93717163988083L337.04881237369216 294.93717163988083L311.496946089454 224.75744715507545Z " fill="#fe7a36" transform="matrix(1.4457639105654776,0,0,1.4457639105654776,0,-98.08874752632381)"/><path d="M555.1675861709143 350.3483862539797L503.12617043604405 350.3483862539797L503.12617043604405 200.34838222988012L552.1787210780333 200.34838222988012Q576.5877860032285 200.34838222988012 588.8948775621507 210.45777886756605Q601.2019691210726 220.5378729063022 601.2019691210726 240.31712719742688L601.2019691210726 240.31712719742688Q601.2019691210726 250.8367602204102 595.2242389353105 258.924277530559Q589.2465087495484 267.0117948407077 578.9612965181635 271.4364872821297L578.9612965181635 271.4364872821297Q591.0925724833867 274.83558876030816 598.1544988302919 284.3589334189978Q605.2164251771972 293.8822780776875 605.2164251771972 307.0684476051039L605.2164251771972 307.0684476051039Q605.2164251771972 327.257938281526 592.14746604558 338.80316226775284Q579.049204315013 350.3483862539797 555.1675861709143 350.3483862539797L555.1675861709143 350.3483862539797ZM555.8708485457098 280.1979643681242L522.9054247271688 280.1979643681242L522.9054247271688 334.17335163368216L555.5778225562117 334.17335163368216Q569.3793466615742 334.17335163368216 577.3496535759238 327.0235174899275Q585.3492630892231 319.844380747223 585.3492630892231 307.2735657977526L585.3492630892231 307.2735657977526Q585.3492630892231 280.1979643681242 555.8708485457098 280.1979643681242L555.8708485457098 280.1979643681242ZM522.9054247271688 216.64062724597687L522.9054247271688 264.3159557373248L552.7940756559793 264.3159557373248Q565.7751269907471 264.3159557373248 573.5403157124479 257.8400813694158Q581.3348070330985 251.33490440255707 581.3348070330985 240.22921940057745L581.3348070330985 240.22921940057745Q581.3348070330985 227.86352264375577 574.0970650924944 222.23742364539143Q566.88862575084 216.64062724597687 552.1787210780333 216.64062724597687L552.1787210780333 216.64062724597687L522.9054247271688 216.64062724597687Z " fill="#020202" transform="matrix(1.4457639105654776,0,0,1.4457639105654776,0,-98.08874752632381)"/></g></svg>