<svg xmlns="http://www.w3.org/2000/svg" version="1.1" xmlns:xlink="http://www.w3.org/1999/xlink" xmlns:svgjs="http://svgjs.dev/svgjs" width="100%" height="100%" viewBox="0 0 1000 600"><rect width="1000" height="600" x="0" y="0" fill="#020202"/><g><rect width="333.3333333333333" height="333.3333333333333" rx="13.333333333333334" ry="13.333333333333334" y="108.68172744249802" fill="#020202" transform="matrix(1.4457639105654776,0,0,1.4457639105654776,0,-98.08874752632381)" x="86.45950317382812"/><path d="M254.12245830226198 350.3483862539797L202.0810425673917 350.3483862539797L202.0810425673917 200.34838222988012L251.13359320938093 200.34838222988012Q275.5426581345763 200.34838222988012 287.84974969349827 210.45777886756605Q300.1568412524203 220.5378729063022 300.1568412524203 240.31712719742688L300.1568412524203 240.31712719742688Q300.1568412524203 250.8367602204102 294.17911106665815 258.924277530559Q288.20138088089607 267.0117948407077 277.91616864951123 271.4364872821297L277.91616864951123 271.4364872821297Q290.04744461473433 274.83558876030816 297.10937096163957 284.3589334189978Q304.17129730854487 293.8822780776875 304.17129730854487 307.0684476051039L304.17129730854487 307.0684476051039Q304.17129730854487 327.257938281526 291.1023381769277 338.80316226775284Q278.00407644636067 350.3483862539797 254.12245830226198 350.3483862539797L254.12245830226198 350.3483862539797ZM254.82572067705752 280.1979643681242L221.8602968585164 280.1979643681242L221.8602968585164 334.17335163368216L254.53269468755937 334.17335163368216Q268.33421879292194 334.17335163368216 276.3045257072714 327.0235174899275Q284.30413522057074 319.844380747223 284.30413522057074 307.2735657977526L284.30413522057074 307.2735657977526Q284.30413522057074 280.1979643681242 254.82572067705752 280.1979643681242L254.82572067705752 280.1979643681242ZM221.8602968585164 216.64062724597687L221.8602968585164 264.3159557373248L251.74894778732704 264.3159557373248Q264.7299991220948 264.3159557373248 272.4951878437956 257.8400813694158Q280.28967916444617 251.33490440255707 280.28967916444617 240.22921940057745L280.28967916444617 240.22921940057745Q280.28967916444617 227.86352264375577 273.05193722384206 222.23742364539143Q265.8434978821877 216.64062724597687 251.13359320938093 216.64062724597687L251.13359320938093 216.64062724597687L221.8602968585164 216.64062724597687Z " fill="#fe7a36" transform="matrix(1.4457639105654776,0,0,1.4457639105654776,0,-98.08874752632381)"/><path d="M555.1675861709143 350.3483862539797L503.12617043604405 350.3483862539797L503.12617043604405 200.34838222988012L552.1787210780333 200.34838222988012Q576.5877860032285 200.34838222988012 588.8948775621507 210.45777886756605Q601.2019691210726 220.5378729063022 601.2019691210726 240.31712719742688L601.2019691210726 240.31712719742688Q601.2019691210726 250.8367602204102 595.2242389353105 258.924277530559Q589.2465087495484 267.0117948407077 578.9612965181635 271.4364872821297L578.9612965181635 271.4364872821297Q591.0925724833867 274.83558876030816 598.1544988302919 284.3589334189978Q605.2164251771972 293.8822780776875 605.2164251771972 307.0684476051039L605.2164251771972 307.0684476051039Q605.2164251771972 327.257938281526 592.14746604558 338.80316226775284Q579.049204315013 350.3483862539797 555.1675861709143 350.3483862539797L555.1675861709143 350.3483862539797ZM555.8708485457098 280.1979643681242L522.9054247271688 280.1979643681242L522.9054247271688 334.17335163368216L555.5778225562117 334.17335163368216Q569.3793466615742 334.17335163368216 577.3496535759238 327.0235174899275Q585.3492630892231 319.844380747223 585.3492630892231 307.2735657977526L585.3492630892231 307.2735657977526Q585.3492630892231 280.1979643681242 555.8708485457098 280.1979643681242L555.8708485457098 280.1979643681242ZM522.9054247271688 216.64062724597687L522.9054247271688 264.3159557373248L552.7940756559793 264.3159557373248Q565.7751269907471 264.3159557373248 573.5403157124479 257.8400813694158Q581.3348070330985 251.33490440255707 581.3348070330985 240.22921940057745L581.3348070330985 240.22921940057745Q581.3348070330985 227.86352264375577 574.0970650924944 222.23742364539143Q566.88862575084 216.64062724597687 552.1787210780333 216.64062724597687L552.1787210780333 216.64062724597687L522.9054247271688 216.64062724597687Z " fill="#020202" transform="matrix(1.4457639105654776,0,0,1.4457639105654776,0,-98.08874752632381)"/></g></svg>