<svg xmlns="http://www.w3.org/2000/svg" version="1.1" xmlns:xlink="http://www.w3.org/1999/xlink" xmlns:svgjs="http://svgjs.dev/svgjs" width="100%" height="100%" viewBox="0 0 1000 600"><rect width="1000" height="600" x="0" y="0" fill="#020202"/><g><rect width="333.3333333333333" height="333.3333333333333" rx="13.333333333333334" ry="13.333333333333334" y="108.68172744249802" fill="#020202" transform="matrix(1.4457639105654776,0,0,1.4457639105654776,0,-98.08874752632381)" x="86.45950317382812"/><path d="M197.8679840002581 252.9212523621503L138.46711826024216 277.3994828147603L197.8679840002581 301.3919269959843L197.8679840002581 319.98674593958765L120.25013308327226 284.03856185703376L120.25013308327226 270.1936531225366L197.8679840002581 234.32643341854697L197.8679840002581 252.9212523621503ZM286.57795478055453 200.34838254772458L228.98529349514155 350.3483879012042L213.89893095599163 350.3483879012042L271.59954474615705 200.34838254772458L286.57795478055453 200.34838254772458ZM304.98385684084116 301.6887963840535L367.7042621019939 276.83273216481007L304.98385684084116 252.24654920744774L304.98385684084116 234.21848091379456L386.00221165752805 270.0857006177842L386.00221165752805 283.95759747846944L304.98385684084116 319.9057815610234L304.98385684084116 301.6887963840535Z " fill="#fe7a36" transform="matrix(1.4457639105654776,0,0,1.4457639105654776,0,-98.08874752632381)"/><path d="M555.1675861709143 350.3483862539797L503.12617043604405 350.3483862539797L503.12617043604405 200.34838222988012L552.1787210780333 200.34838222988012Q576.5877860032285 200.34838222988012 588.8948775621507 210.45777886756605Q601.2019691210726 220.5378729063022 601.2019691210726 240.31712719742688L601.2019691210726 240.31712719742688Q601.2019691210726 250.8367602204102 595.2242389353105 258.924277530559Q589.2465087495484 267.0117948407077 578.9612965181635 271.4364872821297L578.9612965181635 271.4364872821297Q591.0925724833867 274.83558876030816 598.1544988302919 284.3589334189978Q605.2164251771972 293.8822780776875 605.2164251771972 307.0684476051039L605.2164251771972 307.0684476051039Q605.2164251771972 327.257938281526 592.14746604558 338.80316226775284Q579.049204315013 350.3483862539797 555.1675861709143 350.3483862539797L555.1675861709143 350.3483862539797ZM555.8708485457098 280.1979643681242L522.9054247271688 280.1979643681242L522.9054247271688 334.17335163368216L555.5778225562117 334.17335163368216Q569.3793466615742 334.17335163368216 577.3496535759238 327.0235174899275Q585.3492630892231 319.844380747223 585.3492630892231 307.2735657977526L585.3492630892231 307.2735657977526Q585.3492630892231 280.1979643681242 555.8708485457098 280.1979643681242L555.8708485457098 280.1979643681242ZM522.9054247271688 216.64062724597687L522.9054247271688 264.3159557373248L552.7940756559793 264.3159557373248Q565.7751269907471 264.3159557373248 573.5403157124479 257.8400813694158Q581.3348070330985 251.33490440255707 581.3348070330985 240.22921940057745L581.3348070330985 240.22921940057745Q581.3348070330985 227.86352264375577 574.0970650924944 222.23742364539143Q566.88862575084 216.64062724597687 552.1787210780333 216.64062724597687L552.1787210780333 216.64062724597687L522.9054247271688 216.64062724597687Z " fill="#020202" transform="matrix(1.4457639105654776,0,0,1.4457639105654776,0,-98.08874752632381)"/></g></svg>